<?xml version="1.0" standalone="no"?><!DOCTYPE svg PUBLIC "-//W3C//DTD SVG 1.1//EN" "http://www.w3.org/Graphics/SVG/1.1/DTD/svg11.dtd"><svg width="64" height="64" viewBox="0 0 64 64" version="1.1" xmlns="http://www.w3.org/2000/svg" xmlns:xlink="http://www.w3.org/1999/xlink"><defs><style type="text/css"><![CDATA[
@font-face { font-family: ifont; src: url("http://at.alicdn.com/t/font_1442373896_4754455.eot?#iefix") format("embedded-opentype"), url("http://at.alicdn.com/t/font_1442373896_4754455.woff") format("woff"), url("http://at.alicdn.com/t/font_1442373896_4754455.ttf") format("truetype"), url("http://at.alicdn.com/t/font_1442373896_4754455.svg#ifont") format("svg"); }

]]></style></defs><g class="transform-group"><g transform="scale(0.0625, 0.0625)"><path d="M796.444444 932.977778 227.555556 932.977778c-50.267022 0-91.022222-40.7552-91.022222-91.022222l0-45.488356 0-614.4C136.533333 131.777422 177.288533 91.022222 227.555556 91.022222l568.888889 0c50.267022 0 91.022222 40.7552 91.022222 91.044978l0 614.4L887.466667 841.955556C887.466667 892.222578 846.711467 932.977778 796.444444 932.977778zM841.955556 182.044444c0-25.122133-20.366222-45.511111-45.511111-45.511111L250.311111 136.533333C225.188978 136.533333 182.044444 156.922311 182.044444 182.044444l0 527.200711C188.848356 706.992356 196.175644 705.422222 204.8 705.422222l614.4 0c8.624356 0 15.951644 1.570133 22.755556 3.822933L841.955556 182.044444zM841.955556 796.444444c0-25.122133-20.366222-45.511111-45.511111-45.511111L227.555556 750.933333c-25.122133 0-45.511111 20.388978-45.511111 45.511111l0 45.511111c0 25.122133 20.388978 45.533867 45.511111 45.533867l568.888889 0c25.144889 0 45.511111-20.388978 45.511111-45.533867L841.955556 796.444444zM762.311111 841.9328c-18.8416 0-34.133333-15.291733-34.133333-34.133333s15.291733-34.133333 34.133333-34.133333 34.133333 15.291733 34.133333 34.133333S781.152711 841.9328 762.311111 841.9328zM728.177778 318.555022l-68.266667 0 0 250.311111c0 12.583822-10.171733 22.755556-22.755556 22.755556s-22.755556-10.171733-22.755556-22.755556l0-250.311111-68.266667 0c-12.583822 0-22.755556-10.171733-22.755556-22.755556 0-12.561067 10.171733-22.755556 22.755556-22.755556l182.044444 0c12.583822 0 22.755556 10.194489 22.755556 22.755556C750.933333 308.383289 740.7616 318.555022 728.177778 318.555022zM523.377778 500.599467c0 50.267022-40.7552 91.022222-91.022222 91.022222l-113.777778 0c-12.583822 0-22.755556-10.171733-22.755556-22.755556l0-273.066667c0-12.561067 10.171733-22.755556 22.755556-22.755556l91.022222 0c50.267022 0 91.022222 40.7552 91.022222 91.022222 0 22.436978-8.442311 42.734933-21.9136 58.595556C505.355378 438.545067 523.377778 467.330844 523.377778 500.599467zM432.355556 318.555022 432.355556 318.555022l-22.755556 0-68.266667 0 0 91.022222 68.266667 0 22.755556 0 0 0c13.562311-7.896178 22.755556-28.717511 22.755556-45.511111S445.917867 326.4512 432.355556 318.555022zM432.355556 455.088356l-22.755556 0-55.637333 0L341.333333 455.088356l0 91.022222 12.629333 0L432.355556 546.110578c25.122133 0 45.511111-20.388978 45.511111-45.511111S457.477689 455.088356 432.355556 455.088356z" fill="#272636"></path></g></g></svg>