<?xml version="1.0" encoding="utf-8"?>
<!-- Generator: Adobe Illustrator 17.0.0, SVG Export Plug-In . SVG Version: 6.00 Build 0)  -->
<!DOCTYPE svg PUBLIC "-//W3C//DTD SVG 1.1//EN" "http://www.w3.org/Graphics/SVG/1.1/DTD/svg11.dtd">
<svg version="1.1" id="图层_1" xmlns="http://www.w3.org/2000/svg" xmlns:xlink="http://www.w3.org/1999/xlink" x="0px" y="0px"
	 width="177.9px" height="81.148px" viewBox="0 0 177.9 81.148" enable-background="new 0 0 177.9 81.148" xml:space="preserve">
<g>
	<path fill="#070606" d="M23.859,15.626H13.435v-5.328H1.622V7.982h11.813V1.96h10.424v6.022h11.582V1.96h10.656v6.022h11.119v2.316
		H46.097v5.328H35.441v-5.328H23.859V15.626z M12.509,53.616H4.169V16.785h8.339v2.78c0.926-1.697,2.548-2.548,4.864-2.548h3.011
		c3.707-0.152,5.48,1.853,5.328,6.022v24.555c0,4.014-1.854,6.022-5.56,6.022h-2.548c-2.779,0-4.48-0.927-5.096-2.78V53.616z
		 M15.057,19.333c-1.238-0.152-2.085,0.695-2.548,2.548V34.39h4.633V22.576C17.142,20.415,16.446,19.333,15.057,19.333z
		 M14.825,51.3c1.542,0.152,2.316-0.927,2.316-3.243V36.243h-4.633v13.204C13.124,50.681,13.898,51.3,14.825,51.3z M28.724,45.972
		V16.785h8.802v3.475c0.463-2.316,2.005-3.475,4.633-3.475h4.401c6.022-0.152,8.878,2.396,8.571,7.645v22.238
		c0.463,7.876-1.777,11.427-6.718,10.655c-4.481-0.155-8.032-2.24-10.656-6.254c6.023,2.316,8.803,1.002,8.339-3.938v-4.864h-8.571
		v6.486c0.771,6.793-3.243,9.649-12.045,8.57C27.641,54.387,28.724,50.604,28.724,45.972z M40.537,19.101
		c-1.39-0.152-2.396,0.695-3.011,2.548v7.181h8.571v-5.559c0-2.78-1.238-4.17-3.707-4.17H40.537z M37.526,31.146v8.803h8.571v-8.803
		H37.526z"/>
	<path fill="#070606" d="M69.029,21.649h9.497c-0.155,0.619-0.387,1.314-0.695,2.084c0.927-1.078,2.7-1.621,5.328-1.621h1.158v-2.78
		H62.08v-2.085h22.237V6.593H63.006V4.508h32.893c3.395,0.156,5.711-0.695,6.949-2.548h11.814
		c-2.165,3.398-5.947,4.944-11.351,4.633h-9.729v10.655h22.238v2.085H93.583v2.78h8.802c5.096-0.308,8.028,1.158,8.803,4.401
		c0.463,1.39,2.236,3.011,5.327,4.865c-9.576,0.311-14.517-1.158-14.825-4.401c-0.774-2.161-2.316-3.087-4.633-2.78h-3.475v6.486
		h-9.266v-6.486H81.77c-2.472-0.152-4.094,0.463-4.865,1.853c-0.155,0.156-0.311,0.388-0.463,0.695
		c-0.312,0.619-0.543,1.006-0.695,1.158c-0.311,2.316-5.175,3.398-14.593,3.243C64.548,30.068,67.176,26.901,69.029,21.649z
		 M74.357,56.627h-9.729V32.073h9.729v4.169c0.615-3.087,2.932-4.553,6.949-4.401h24.091c5.711-0.308,8.491,1.854,8.339,6.486
		v12.277c0.152,4.014-2.009,5.943-6.486,5.791H80.148c-3.554,0.308-5.483-1.158-5.791-4.401V56.627z M64.86,7.751h9.729
		c1.39,3.706,3.627,6.178,6.718,7.413c-6.642,0-10.735-0.384-12.277-1.158C67.328,13.39,65.938,11.305,64.86,7.751z M80.148,34.158
		c-2.627-0.152-4.557,0.926-5.791,3.243v5.56h10.192v-8.803H80.148z M74.357,50.604c1.234,2.469,2.856,3.706,4.865,3.706h5.328
		v-9.266H74.357V50.604z M100.069,34.158h-6.486v8.803h10.656v-4.633C104.39,35.396,103,34.006,100.069,34.158z M100.764,54.311
		c2.468,0.152,3.626-1.082,3.475-3.706v-5.56H93.583v9.266H100.764z M103.312,7.751h9.729c-1.082,3.554-2.472,5.639-4.169,6.254
		c-1.546,0.774-5.64,1.158-12.277,1.158C99.682,13.929,101.922,11.457,103.312,7.751z"/>
	<path fill="#070606" d="M120.453,54.543v-3.012c9.266-0.155,16.91-1.542,22.933-4.17C140.294,51.839,132.65,54.231,120.453,54.543z
		 M134.351,16.322h8.571c-4.789,8.802-8.571,15.6-11.351,20.384c-0.774,1.39-1.006,2.396-0.695,3.011
		c0.464,0.619,1.311,0.774,2.549,0.463c3.087-0.463,5.711-1.079,7.876-1.853c-3.555,3.398-7.956,5.176-13.204,5.328
		c-6.179-0.615-7.8-3.626-4.864-9.034c2.316-3.706,4.633-7.488,6.949-11.35c-1.39,0.774-3.091,1.158-5.097,1.158
		c-4.48-0.308-5.559-3.395-3.242-9.266c0.771-1.234,2.005-3.395,3.706-6.486c1.853-3.087,3.087-5.248,3.706-6.486h9.266
		c-3.091,5.407-6.179,10.887-9.266,16.447c-0.774,1.238-1.082,2.084-0.927,2.548c0.152,0.463,0.771,0.695,1.854,0.695
		c0.463,0,0.771,0,0.927,0C132.342,20.028,133.425,18.175,134.351,16.322z M176.047,55.701h-35.674v-2.316h3.475V4.276h8.803v2.316
		c0.771-1.542,2.393-2.316,4.865-2.316h6.949c5.711-0.152,8.49,1.933,8.338,6.254v42.854h3.244V55.701z M157.979,6.593
		c-2.629-0.152-4.402,0.463-5.328,1.853v12.045h11.119V10.067c0.152-2.469-1.006-3.627-3.475-3.475H157.979z M152.651,22.808v13.667
		h11.119V22.808H152.651z M152.651,38.791v14.594h11.119V38.791H152.651z"/>
</g>
<g>
	<path d="M99.812,65.609h-6.733c1.084,2.615,2.417,5.575,3.996,8.88c0.888,1.726,1.898,2.886,3.034,3.478
		c-2.023,0-3.33-0.124-3.922-0.37c-0.74-0.247-1.332-0.813-1.776-1.702c-1.184-2.269-2.246-4.538-3.182-6.808
		c-0.198,0.444-0.518,1.136-0.962,2.072c-0.987,2.171-1.751,3.749-2.294,4.735c-0.444,0.889-1.036,1.455-1.776,1.702
		c-0.592,0.246-1.899,0.37-3.922,0.37c1.134-0.592,2.146-1.752,3.034-3.478c1.578-3.305,2.91-6.265,3.996-8.88h-6.882v-0.814h7.178
		v-4.439h3.182v4.439h7.029V65.609z"/>
	<path d="M103.142,77.967h-1.702c0.394-0.296,0.986-1.012,1.775-2.146c0.296-0.394,0.543-0.764,0.74-1.109
		c-0.197-0.345-0.494-0.862-0.888-1.554c-0.444-0.69-0.766-1.209-0.962-1.555v-6.438h-0.888v-0.666h0.888V60.8h2.59v3.699h2.59
		c0.888,0.05,1.356,0.568,1.405,1.555v5.549c-0.739,1.284-1.357,2.344-1.85,3.183c0.246,0.396,0.519,0.765,0.814,1.109
		c0.344,0.592,0.813,1.159,1.405,1.702c0.246,0.246,0.395,0.37,0.444,0.37h-1.036c-1.628,0.049-2.615-0.296-2.96-1.036
		c-0.05-0.05-0.1-0.1-0.147-0.147c0,0.048-0.05,0.122-0.148,0.222c-0.05,0.049-0.074,0.098-0.074,0.147
		C104.596,77.745,103.93,78.016,103.142,77.967z M106.101,71.159v-5.105c-0.049-0.543-0.296-0.839-0.739-0.889h-0.666v6.068
		c0.098,0.099,0.222,0.296,0.37,0.592c0.147,0.247,0.246,0.443,0.296,0.592c0.098-0.148,0.222-0.32,0.37-0.518
		C105.83,71.751,105.954,71.505,106.101,71.159z M110.763,63.463h2.886c0.395,0.494,0.74,1.036,1.036,1.628
		c0.986-1.134,1.528-1.947,1.628-2.441c0.049-0.592-0.396-0.862-1.332-0.814h-5.105v-0.739h6.733c1.677,0,2.516,0.592,2.516,1.775
		c0.099,0.642-1.062,2.172-3.478,4.588c0.049,0.1,0.123,0.296,0.222,0.592c0.049,0.248,0.099,0.444,0.148,0.593h2.96v0.739h-2.812
		c0.297,1.48,0.419,2.96,0.37,4.44c0,2.812-0.839,4.218-2.516,4.218c-2.27,0.048-3.749-0.691-4.439-2.221
		c0.788,0.345,1.603,0.519,2.441,0.519c1.135,0.099,1.677-1.036,1.628-3.404c-0.05-1.184-0.173-2.367-0.37-3.552h-4.144v-0.739
		h3.996C112.687,66.769,111.898,65.043,110.763,63.463z"/>
	<path d="M132,62.132h0.148c0.048,0.099,0.122,0.271,0.222,0.518c0.246,0.444,0.395,0.79,0.444,1.036
		c-0.396,0.247-0.988,0.493-1.776,0.74c-0.247,0.099-0.444,0.173-0.592,0.222c0.147,0.197,0.345,0.543,0.592,1.036
		c0.246,0.443,0.419,0.789,0.518,1.035c0.296-0.098,0.74-0.271,1.332-0.518c0.592-0.196,1.036-0.345,1.332-0.444h0.223l0.665,1.332
		l-0.073,0.223c-0.248,0.05-0.592,0.147-1.036,0.296c-0.296,0.1-0.519,0.173-0.666,0.222c-0.296,0.148-0.642,0.247-1.036,0.296
		c0.049,0.05,0.099,0.124,0.148,0.222c0.098,0.1,0.147,0.174,0.147,0.223c0.395,0.789,1.085,1.751,2.072,2.886
		c0,0.05,0.024,0.1,0.074,0.147c0.196,0.248,0.296,0.444,0.296,0.593l-1.628,1.554c-1.58-1.036-3.552-1.554-5.92-1.554h-0.444
		c-0.642,0-1.159,0.099-1.554,0.296c-0.691,0.443-0.913,0.987-0.666,1.628c0.099,0.296,0.37,0.567,0.814,0.813
		c0.344,0.296,0.912,0.494,1.701,0.592c0.74,0.148,1.48,0.223,2.221,0.223h0.369c0.296,0,0.593-0.024,0.889-0.074l-0.148,2.072
		h-0.518c-4.588-0.248-6.981-1.58-7.178-3.996v-0.37c0.049-0.888,0.542-1.603,1.479-2.146c0.937-0.444,1.924-0.666,2.96-0.666h0.74
		c1.036,0,2.269,0.222,3.699,0.666h0.074c-0.1-0.148-0.247-0.395-0.443-0.74c-0.148-0.345-0.47-0.962-0.962-1.85
		c-0.494,0.147-1.012,0.247-1.555,0.296c-1.332,0.197-2.689,0.321-4.069,0.37l-0.148-0.074l-0.888-1.406l0.074-0.147h0.518
		c1.431,0,2.836-0.123,4.218-0.37c0.197,0,0.493-0.049,0.889-0.148c-0.248,0.1-0.198,0.1,0.147,0
		c-0.296-0.641-0.617-1.332-0.962-2.072c-1.036,0.297-2.098,0.519-3.182,0.666c-0.1-0.196-0.248-0.418-0.444-0.666
		c-0.147-0.196-0.247-0.344-0.296-0.443l-0.074-0.074c-0.197-0.147-0.271-0.296-0.222-0.444c0.049,0,0.123,0,0.222,0
		c0.986-0.147,2.047-0.344,3.183-0.592c-0.297-0.592-0.568-1.184-0.814-1.775c-0.148-0.296-0.222-0.543-0.222-0.74l1.998-0.37
		c0.296,0.84,0.592,1.628,0.888,2.368C130.521,62.773,131.26,62.478,132,62.132z"/>
	<path d="M144.654,61.17h0.222l2.368,0.592v0.147c-0.247,0.296-0.443,0.642-0.592,1.036c-0.05,0.296-0.174,0.74-0.37,1.332
		c-0.1,0.296-0.173,0.518-0.222,0.666c0.986-0.246,1.924-0.469,2.812-0.666l0.148,0.074l-0.148,1.924
		c-1.086,0.197-2.195,0.346-3.33,0.443c-0.543,1.925-1.184,3.824-1.924,5.698c-0.592,1.728-1.332,3.38-2.22,4.958l-0.074,0.073
		l-2.22-0.813c1.135-1.479,2.194-3.552,3.182-6.216c0.493-1.184,0.913-2.368,1.259-3.552c-0.494,0-1.012,0-1.555,0h-1.036
		c-0.147,0-0.247-0.024-0.296-0.074l-0.37-1.85c0.247,0,0.617,0.025,1.11,0.074c0.492,0.05,0.862,0.073,1.11,0.073h0.813
		c0.296,0,0.566,0,0.814,0c0-0.098,0.048-0.296,0.147-0.592c0.246-1.232,0.37-2.194,0.37-2.886V61.17z M150.944,75.229h0.739
		c1.233,0,2.245-0.147,3.034-0.443l-0.222,1.998c-0.84,0.147-1.678,0.222-2.516,0.222h-0.593c-1.184,0-2.64-0.271-4.365-0.814
		l0.222-1.628c0.148,0.05,0.395,0.1,0.74,0.148C149.266,75.057,150.252,75.229,150.944,75.229z M151.018,67.459h0.665
		c0.345,0,0.839,0.05,1.48,0.148c0.345,0.05,0.592,0.074,0.74,0.074l-0.148,1.997c-1.136-0.296-2.048-0.443-2.737-0.443h-0.593
		c-0.346,0-0.839,0.05-1.479,0.147c-0.346,0.05-0.592,0.074-0.74,0.074l0.223-1.775c0.196,0,0.492-0.024,0.888-0.074
		C150.104,67.509,150.672,67.459,151.018,67.459z M151.98,64.352v-0.148l0.888-0.888c0.098-0.099,0.147-0.099,0.147,0
		c0.69,0.346,1.282,0.79,1.776,1.332c0.147,0.147,0.271,0.271,0.37,0.37c-0.05,0.05-0.1,0.1-0.148,0.147l-0.074,0.074
		c-0.296,0.296-0.592,0.543-0.888,0.74c0,0.05-0.05,0.05-0.147,0C153.262,65.486,152.62,64.943,151.98,64.352z M153.681,62.575
		l0.889-1.109c0.296,0.05,0.641,0.222,1.035,0.518c0.148,0.148,0.271,0.247,0.37,0.296c0.099,0.148,0.271,0.321,0.519,0.519
		c0.147,0.147,0.246,0.247,0.296,0.296c0.098,0.05,0.098,0.123,0,0.222l-0.962,0.888c0,0.05-0.05,0.05-0.148,0
		c-0.642-0.542-1.308-1.06-1.998-1.554V62.575z"/>
	<path d="M168.407,61.539l0.148,0.223c-0.296,0.543-0.444,1.332-0.444,2.367v0.814c0,0.1,0,0.222,0,0.37
		c2.17-0.148,3.896-0.493,5.18-1.036l0.148,2.441c-1.628,0.248-3.256,0.37-4.884,0.37h-0.37c0,0.198,0.024,0.47,0.074,0.814
		c0,0.296,0,0.518,0,0.666c-0.05-0.641,0.049,0.617,0.296,3.773c1.528,0.544,3.23,1.506,5.105,2.886l-1.258,1.555h-0.148
		c-0.147-0.148-0.419-0.37-0.813-0.666c-0.197-0.148-0.346-0.223-0.444-0.223c-0.789-0.542-1.604-1.036-2.441-1.479
		c-0.198,0.839-0.444,1.382-0.74,1.628c-0.642,0.69-1.332,1.158-2.071,1.405c-0.396,0.049-0.864,0.074-1.406,0.074h-0.222
		c-0.938,0-1.752-0.271-2.442-0.813c-0.987-0.642-1.479-1.356-1.479-2.146v-0.296c0.048-0.739,0.518-1.43,1.405-2.071
		c0.592-0.395,1.406-0.593,2.442-0.593h0.666c0.69,0,1.355,0.074,1.998,0.223c-0.05-1.185-0.124-2.368-0.223-3.552
		c-0.1-1.282-0.147-2.318-0.147-3.108v-1.479c0-0.246-0.025-0.616-0.074-1.11c-0.05-0.542-0.074-0.962-0.074-1.258
		C166.927,61.367,167.667,61.441,168.407,61.539z M164.189,73.157h-0.222c-1.233,0.099-1.899,0.543-1.998,1.332
		c0.099,0.789,0.715,1.258,1.85,1.405h0.37c0.839,0,1.431-0.172,1.776-0.518c0.443-0.345,0.69-0.839,0.74-1.48v-0.296
		C165.669,73.305,164.83,73.157,164.189,73.157z"/>
</g>
</svg>
