<?xml version="1.0" standalone="no"?><!DOCTYPE svg PUBLIC "-//W3C//DTD SVG 1.1//EN" "http://www.w3.org/Graphics/SVG/1.1/DTD/svg11.dtd"><svg width="200" height="200" viewBox="0 0 200 200" version="1.1" xmlns="http://www.w3.org/2000/svg" xmlns:xlink="http://www.w3.org/1999/xlink"><defs><style type="text/css"><![CDATA[
@font-face { font-family: ifont; src: url("http://at.alicdn.com/t/font_1442373896_4754455.eot?#iefix") format("embedded-opentype"), url("http://at.alicdn.com/t/font_1442373896_4754455.woff") format("woff"), url("http://at.alicdn.com/t/font_1442373896_4754455.ttf") format("truetype"), url("http://at.alicdn.com/t/font_1442373896_4754455.svg#ifont") format("svg"); }

]]></style></defs><g class="transform-group"><g transform="scale(0.1953125, 0.1953125)"><path d="M184.41216 421.855232c-49.990656 0-90.499072 40.516608-90.499072 90.49088 0 49.975296 40.50944 90.492928 90.499072 90.492928 49.975296 0 90.483712-40.517632 90.483712-90.492928C274.896896 462.37184 234.387456 421.855232 184.41216 421.855232zM512.442368 421.855232c-49.989632 0-90.498048 40.516608-90.498048 90.49088 0 49.975296 40.50944 90.492928 90.498048 90.492928 49.99168 0 90.483712-40.517632 90.483712-90.492928C602.92608 462.37184 562.434048 421.855232 512.442368 421.855232zM838.038528 421.855232c-49.974272 0-90.483712 40.516608-90.483712 90.49088 0 49.975296 40.510464 90.492928 90.483712 90.492928 49.989632 0 90.500096-40.517632 90.500096-90.492928C928.538624 462.37184 888.02816 421.855232 838.038528 421.855232z" fill="#fff"></path></g></g></svg>